<svg width="16" height="16" viewBox="0 0 16 16" fill="none" xmlns="http://www.w3.org/2000/svg" >
    <g clip-path="url(#clip0_2524_20229)">
      <path fill-rule="evenodd" clip-rule="evenodd" d="M7.99935 0.666992C12.0494 0.666992 15.3327 3.95024 15.3327 8.00033C15.3327 12.0504 12.0494 15.3337 7.99935 15.3337C3.94926 15.3337 0.666016 12.0504 0.666016 8.00033C0.666016 3.95024 3.94926 0.666992 7.99935 0.666992ZM11.2018 4.79004C10.899 4.58074 10.4841 4.65658 10.2747 4.95931L6.95508 9.76074L5.46354 8.15202C5.2133 7.88215 4.79148 7.8662 4.52148 8.11621C4.25156 8.3665 4.2355 8.78828 4.48568 9.05827L6.54297 11.277C6.68042 11.4251 6.87789 11.503 7.07943 11.4886C7.28086 11.474 7.46521 11.3689 7.58008 11.2028L11.3711 5.71712C11.5803 5.4143 11.5045 4.99937 11.2018 4.79004Z" fill="#04B545"/>
    </g>
    <defs>
      <clipPath id="clip0_2524_20229">
        <rect width="16" height="16" fill="white"/>
      </clipPath>
    </defs>
  </svg>